<svg width="424.8000122070312px" height="126.839990234375px" xmlns="http://www.w3.org/2000/svg" viewBox="37.59999389648439 11.580004882812503 424.8000122070312 126.839990234375" style="background: rgba(0, 0, 0, 0) none repeat scroll 0% 0%;" preserveAspectRatio="xMidYMid"><defs><filter id="editing-extrusion" x="-100%" y="-100%" width="300%" height="300%"><feFlood result="color1" flood-color="#000000"></feFlood><feConvolveMatrix order="8,8" divisor="1" kernelMatrix="1 0 0 0 0 0 0 0 0 1 0 0 0 0 0 0 0 0 1 0 0 0 0 0 0 0 0 1 0 0 0 0 0 0 0 0 1 0 0 0 0 0 0 0 0 1 0 0 0 0 0 0 0 0 1 0 0 0 0 0 0 0 0 1" in="SourceAlpha" result="extrude"></feConvolveMatrix><feComposite in="color1" in2="extrude" result="comp-extrude" operator="in"></feComposite><feOffset dx="4" dy="4" in="comp-extrude" result="offset-extrude"></feOffset><feMerge><feMergeNode in="offset-extrude"></feMergeNode><feMergeNode in="SourceGraphic"></feMergeNode></feMerge></filter></defs><g filter="url(#editing-extrusion)"><g transform="translate(103.99999117851257, 104.76499938964844)"><path d="M18.44 0L12.03 0L1.28-33.28L7.50-33.28L15.38-8.19L22.72-33.28L29-33.28L36.34-8.19L44.22-33.28L50.44-33.28L39.69 0L33.28 0L25.84-24.44L18.44 0ZM57.16-33.28L63.31-33.28L63.31 0L57.16 0L57.16-33.28ZM56.84-39.69L56.84-46.09L63.63-46.09L63.63-39.69L56.84-39.69ZM73.88-6.16L73.88-27.13L73.88-27.13Q73.88-28.41 74.36-29.53L74.36-29.53L74.36-29.53Q74.84-30.66 75.67-31.48L75.67-31.48L75.67-31.48Q76.50-32.31 77.63-32.80L77.63-32.80L77.63-32.80Q78.75-33.28 80-33.28L80-33.28L97.16-33.28L97.16-46.09L103.31-46.09L103.31 0L97.16 0L97.16-5.63L97.16-5.63Q97.06-4.47 96.53-3.44L96.53-3.44L96.53-3.44Q96-2.41 95.17-1.64L95.17-1.64L95.17-1.64Q94.34-0.88 93.28-0.44L93.28-0.44L93.28-0.44Q92.22 0 91.03 0L91.03 0L80 0L80 0Q78.75 0 77.63-0.48L77.63-0.48L77.63-0.48Q76.50-0.97 75.67-1.80L75.67-1.80L75.67-1.80Q74.84-2.63 74.36-3.75L74.36-3.75L74.36-3.75Q73.88-4.88 73.88-6.16L73.88-6.16ZM80-27.13L80-6.16L97.16-6.16L97.16-27.13L80-27.13ZM113.56-7.44L113.56-27.13L113.56-27.13Q113.56-28.41 114.05-29.53L114.05-29.53L114.05-29.53Q114.53-30.66 115.36-31.48L115.36-31.48L115.36-31.48Q116.19-32.31 117.31-32.80L117.31-32.80L117.31-32.80Q118.44-33.28 119.69-33.28L119.69-33.28L130.72-33.28L130.72-33.28Q131.94-33.28 133.03-32.83L133.03-32.83L133.03-32.83Q134.13-32.38 134.95-31.58L134.95-31.58L134.95-31.58Q135.78-30.78 136.30-29.70L136.30-29.70L136.30-29.70Q136.81-28.63 136.84-27.41L136.84-27.41L136.84-33.28L143-33.28L143 7.28L143 7.28Q143 8.56 142.52 9.69L142.52 9.69L142.52 9.69Q142.03 10.81 141.20 11.64L141.20 11.64L141.20 11.64Q140.38 12.47 139.25 12.95L139.25 12.95L139.25 12.95Q138.13 13.44 136.84 13.44L136.84 13.44L117.41 13.44L117.41 7.28L136.84 7.28L136.84-1.28L119.69-1.28L119.69-1.28Q118.44-1.28 117.31-1.77L117.31-1.77L117.31-1.77Q116.19-2.25 115.36-3.08L115.36-3.08L115.36-3.08Q114.53-3.91 114.05-5.03L114.05-5.03L114.05-5.03Q113.56-6.16 113.56-7.44L113.56-7.44ZM119.69-7.44L136.84-7.44L136.84-27.13L119.69-27.13L119.69-7.44ZM181.41-27.13L181.41-13.50L159.38-13.50L159.38-6.16L181.41-6.16L181.41 0L159.38 0L159.38 0Q158.13 0 157-0.48L157-0.48L157-0.48Q155.88-0.97 155.05-1.80L155.05-1.80L155.05-1.80Q154.22-2.63 153.73-3.75L153.73-3.75L153.73-3.75Q153.25-4.88 153.25-6.16L153.25-6.16L153.25-27.13L153.25-27.13Q153.25-28.41 153.73-29.53L153.73-29.53L153.73-29.53Q154.22-30.66 155.05-31.48L155.05-31.48L155.05-31.48Q155.88-32.31 157-32.80L157-32.80L157-32.80Q158.13-33.28 159.38-33.28L159.38-33.28L175.25-33.28L175.25-33.28Q176.53-33.28 177.66-32.80L177.66-32.80L177.66-32.80Q178.78-32.31 179.61-31.48L179.61-31.48L179.61-31.48Q180.44-30.66 180.92-29.53L180.92-29.53L180.92-29.53Q181.41-28.41 181.41-27.13L181.41-27.13ZM175.25-27.13L159.38-27.13L159.38-19.66L175.25-19.66L175.25-27.13ZM189.72-27.13L189.72-33.28L197.84-33.28L197.84-43.53L204-43.53L204-33.28L214.94-33.28L214.94-27.13L204-27.13L204-6.16L214.94-6.16L214.94 0L204 0L204 0Q202.75 0 201.63-0.48L201.63-0.48L201.63-0.48Q200.50-0.97 199.66-1.80L199.66-1.80L199.66-1.80Q198.81-2.63 198.33-3.75L198.33-3.75L198.33-3.75Q197.84-4.88 197.84-6.16L197.84-6.16L197.84-27.13L189.72-27.13ZM225.19-14.97L225.19-21.13L240.16-21.13L240.16-14.97L225.19-14.97ZM250.72-33.28L256.88-33.28L256.88 0L250.72 0L250.72-33.28ZM250.41-39.69L250.41-46.09L257.19-46.09L257.19-39.69L250.41-39.69ZM265.50-27.13L265.50-33.28L273.63-33.28L273.63-43.53L279.78-43.53L279.78-33.28L290.72-33.28L290.72-27.13L279.78-27.13L279.78-6.16L290.72-6.16L290.72 0L279.78 0L279.78 0Q278.53 0 277.41-0.48L277.41-0.48L277.41-0.48Q276.28-0.97 275.44-1.80L275.44-1.80L275.44-1.80Q274.59-2.63 274.11-3.75L274.11-3.75L274.11-3.75Q273.63-4.88 273.63-6.16L273.63-6.16L273.63-27.13L265.50-27.13Z" fill="#9b9b9b"></path></g></g><style>text {
  font-size: 64px;
  font-family: Arial Black;
  dominant-baseline: central;
  text-anchor: middle;
}</style></svg>