<?xml version="1.0" encoding="UTF-8" standalone="no" ?>
<!DOCTYPE svg PUBLIC "-//W3C//DTD SVG 1.1//EN" "http://www.w3.org/Graphics/SVG/1.1/DTD/svg11.dtd">
<svg xmlns="http://www.w3.org/2000/svg" xmlns:xlink="http://www.w3.org/1999/xlink" version="1.1" width="640" height="150" viewBox="0 0 640 150" xml:space="preserve">
<desc>Created with Fabric.js 3.6.3</desc>
<defs>
</defs>
<g transform="matrix(2.2 0 0 2.2 319.01 79.49)"  >
<path style="stroke: none; stroke-width: 1; stroke-dasharray: none; stroke-linecap: butt; stroke-dashoffset: 0; stroke-linejoin: miter; stroke-miterlimit: 4; fill: rgb(155,155,155); fill-rule: nonzero; opacity: 1;"  transform=" translate(-146, 16.33)" d="M 18.44 0 L 12.03 0 L 1.28 -33.28 L 7.5 -33.28 L 15.38 -8.19 L 22.72 -33.28 L 29 -33.28 L 36.34 -8.19 L 44.22 -33.28 L 50.44 -33.28 L 39.69 0 L 33.28 0 L 25.84 -24.44 L 18.44 0 Z M 57.16 -33.28 L 63.31 -33.28 L 63.31 0 L 57.16 0 L 57.16 -33.28 Z M 56.84 -39.69 L 56.84 -46.09 L 63.63 -46.09 L 63.63 -39.69 L 56.84 -39.69 Z M 73.88 -6.16 L 73.88 -27.13 L 73.88 -27.13 Q 73.88 -28.41 74.36 -29.53 L 74.36 -29.53 L 74.36 -29.53 Q 74.84 -30.66 75.67 -31.48 L 75.67 -31.48 L 75.67 -31.48 Q 76.5 -32.31 77.63 -32.8 L 77.63 -32.8 L 77.63 -32.8 Q 78.75 -33.28 80 -33.28 L 80 -33.28 L 97.16 -33.28 L 97.16 -46.09 L 103.31 -46.09 L 103.31 0 L 97.16 0 L 97.16 -5.63 L 97.16 -5.63 Q 97.06 -4.47 96.53 -3.44 L 96.53 -3.44 L 96.53 -3.44 Q 96 -2.41 95.17 -1.64 L 95.17 -1.64 L 95.17 -1.64 Q 94.34 -0.88 93.28 -0.44 L 93.28 -0.44 L 93.28 -0.44 Q 92.22 0 91.03 0 L 91.03 0 L 80 0 L 80 0 Q 78.75 0 77.63 -0.48 L 77.63 -0.48 L 77.63 -0.48 Q 76.5 -0.97 75.67 -1.8 L 75.67 -1.8 L 75.67 -1.8 Q 74.84 -2.63 74.36 -3.75 L 74.36 -3.75 L 74.36 -3.75 Q 73.88 -4.88 73.88 -6.16 L 73.88 -6.16 Z M 80 -27.13 L 80 -6.16 L 97.16 -6.16 L 97.16 -27.13 L 80 -27.13 Z M 113.56 -7.44 L 113.56 -27.13 L 113.56 -27.13 Q 113.56 -28.41 114.05 -29.53 L 114.05 -29.53 L 114.05 -29.53 Q 114.53 -30.66 115.36 -31.48 L 115.36 -31.48 L 115.36 -31.48 Q 116.19 -32.31 117.31 -32.8 L 117.31 -32.8 L 117.31 -32.8 Q 118.44 -33.28 119.69 -33.28 L 119.69 -33.28 L 130.72 -33.28 L 130.72 -33.28 Q 131.94 -33.28 133.03 -32.83 L 133.03 -32.83 L 133.03 -32.83 Q 134.13 -32.38 134.95 -31.58 L 134.95 -31.58 L 134.95 -31.58 Q 135.78 -30.78 136.3 -29.7 L 136.3 -29.7 L 136.3 -29.7 Q 136.81 -28.63 136.84 -27.41 L 136.84 -27.41 L 136.84 -33.28 L 143 -33.28 L 143 7.28 L 143 7.28 Q 143 8.56 142.52 9.69 L 142.52 9.69 L 142.52 9.69 Q 142.03 10.81 141.2 11.64 L 141.2 11.64 L 141.2 11.64 Q 140.38 12.47 139.25 12.95 L 139.25 12.95 L 139.25 12.95 Q 138.13 13.44 136.84 13.44 L 136.84 13.44 L 117.41 13.44 L 117.41 7.28 L 136.84 7.28 L 136.84 -1.28 L 119.69 -1.28 L 119.69 -1.28 Q 118.44 -1.28 117.31 -1.77 L 117.31 -1.77 L 117.31 -1.77 Q 116.19 -2.25 115.36 -3.08 L 115.36 -3.08 L 115.36 -3.08 Q 114.53 -3.91 114.05 -5.03 L 114.05 -5.03 L 114.05 -5.03 Q 113.56 -6.16 113.56 -7.44 L 113.56 -7.44 Z M 119.69 -7.44 L 136.84 -7.44 L 136.84 -27.13 L 119.69 -27.13 L 119.69 -7.44 Z M 181.41 -27.13 L 181.41 -13.5 L 159.38 -13.5 L 159.38 -6.16 L 181.41 -6.16 L 181.41 0 L 159.38 0 L 159.38 0 Q 158.13 0 157 -0.48 L 157 -0.48 L 157 -0.48 Q 155.88 -0.97 155.05 -1.8 L 155.05 -1.8 L 155.05 -1.8 Q 154.22 -2.63 153.73 -3.75 L 153.73 -3.75 L 153.73 -3.75 Q 153.25 -4.88 153.25 -6.16 L 153.25 -6.16 L 153.25 -27.13 L 153.25 -27.13 Q 153.25 -28.41 153.73 -29.53 L 153.73 -29.53 L 153.73 -29.53 Q 154.22 -30.66 155.05 -31.48 L 155.05 -31.48 L 155.05 -31.48 Q 155.88 -32.31 157 -32.8 L 157 -32.8 L 157 -32.8 Q 158.13 -33.28 159.38 -33.28 L 159.38 -33.28 L 175.25 -33.28 L 175.25 -33.28 Q 176.53 -33.28 177.66 -32.8 L 177.66 -32.8 L 177.66 -32.8 Q 178.78 -32.31 179.61 -31.48 L 179.61 -31.48 L 179.61 -31.48 Q 180.44 -30.66 180.92 -29.53 L 180.92 -29.53 L 180.92 -29.53 Q 181.41 -28.41 181.41 -27.13 L 181.41 -27.13 Z M 175.25 -27.13 L 159.38 -27.13 L 159.38 -19.66 L 175.25 -19.66 L 175.25 -27.13 Z M 189.72 -27.13 L 189.72 -33.28 L 197.84 -33.28 L 197.84 -43.53 L 204 -43.53 L 204 -33.28 L 214.94 -33.28 L 214.94 -27.13 L 204 -27.13 L 204 -6.16 L 214.94 -6.16 L 214.94 0 L 204 0 L 204 0 Q 202.75 0 201.63 -0.48 L 201.63 -0.48 L 201.63 -0.48 Q 200.5 -0.97 199.66 -1.8 L 199.66 -1.8 L 199.66 -1.8 Q 198.81 -2.63 198.33 -3.75 L 198.33 -3.75 L 198.33 -3.75 Q 197.84 -4.88 197.84 -6.16 L 197.84 -6.16 L 197.84 -27.13 L 189.72 -27.13 Z M 225.19 -14.97 L 225.19 -21.13 L 240.16 -21.13 L 240.16 -14.97 L 225.19 -14.97 Z M 250.72 -33.28 L 256.88 -33.28 L 256.88 0 L 250.72 0 L 250.72 -33.28 Z M 250.41 -39.69 L 250.41 -46.09 L 257.19 -46.09 L 257.19 -39.69 L 250.41 -39.69 Z M 265.5 -27.13 L 265.5 -33.28 L 273.63 -33.28 L 273.63 -43.53 L 279.78 -43.53 L 279.78 -33.28 L 290.72 -33.28 L 290.72 -27.13 L 279.78 -27.13 L 279.78 -6.16 L 290.72 -6.16 L 290.72 0 L 279.78 0 L 279.78 0 Q 278.53 0 277.41 -0.48 L 277.41 -0.48 L 277.41 -0.48 Q 276.28 -0.97 275.44 -1.8 L 275.44 -1.8 L 275.44 -1.8 Q 274.59 -2.63 274.11 -3.75 L 274.11 -3.75 L 274.11 -3.75 Q 273.63 -4.88 273.63 -6.16 L 273.63 -6.16 L 273.63 -27.13 L 265.5 -27.13 Z" stroke-linecap="round" />
</g>
</svg>